<svg xmlns="http://www.w3.org/2000/svg" width="120" height="35" viewBox="0 0 120 35" fill="#529471"><g clip-path="url(#clip0_674_2822)"><path d="M0.600473 15.6199C15.5305 11.2999 31.2205 16.0099 45.7605 19.6199C53.2205 21.4699 60.7905 23.1099 68.5005 23.2899C75.2705 23.4499 82.0805 22.4399 88.5305 20.3899C95.7105 18.1099 103.01 14.5799 108.5 9.32994C108.88 8.96994 108.38 8.28994 107.93 8.58994C102.16 12.4999 96.3505 16.1199 89.7405 18.4499C83.1305 20.7799 76.2805 21.9599 69.3505 21.9299C53.9205 21.8499 39.4705 15.4799 24.3205 13.4299C16.3805 12.3499 8.14047 12.6799 0.520473 15.3099C0.320473 15.3799 0.400473 15.6899 0.610473 15.6299H0.600473V15.6199Z" fill="#529471"></path><path d="M19.3608 13.75C20.1908 11.94 21.0908 10.32 22.4908 8.88998C23.8908 7.45998 25.6208 6.26998 27.4508 5.38998C31.7508 3.30998 36.7308 2.90998 41.4108 2.46998L40.9108 1.80998C38.6908 10.69 27.9708 12.79 20.1908 13.36C20.0008 13.37 20.0008 13.67 20.1908 13.66C24.9908 13.37 29.9308 13.16 34.2708 10.88C37.7808 9.03998 40.7908 5.95998 41.9008 2.08998C41.9908 1.78998 41.7408 1.39998 41.4008 1.42998C36.4108 1.90998 31.3708 2.44998 26.7708 4.57998C23.1608 6.24998 19.3708 9.29998 18.2908 13.31C18.1308 13.91 19.0608 14.36 19.3308 13.75H19.3608Z" fill="#529471"></path><path d="M22.4003 14.05C22.8303 15.25 23.3003 16.25 23.9903 17.34C24.6003 18.31 25.2503 19.26 25.9303 20.18C27.2303 21.95 28.6503 23.65 30.4203 24.97C34.3203 27.89 39.7703 28.83 44.5103 29.27C45.1503 29.33 45.3703 28.6 45.1703 28.13C43.8303 25.04 41.8203 22.2 39.2903 19.97C38.0403 18.87 36.6803 17.9 35.2203 17.09C34.5003 16.69 33.7503 16.32 33.0403 15.89C32.3303 15.46 31.6803 14.84 30.8803 14.52C30.5203 14.38 30.1403 14.8 30.2503 15.15C30.7003 16.49 32.3603 17.25 33.5303 17.85C35.0803 18.65 36.5703 19.49 37.9103 20.61C40.5203 22.79 42.5503 25.53 43.7703 28.71L44.5003 27.75C40.0503 27.21 34.8603 26.4 31.1603 23.68C29.4503 22.42 28.0603 20.74 26.8003 19.04C26.1403 18.15 25.5203 17.24 24.8503 16.35C24.1503 15.41 23.4303 14.7 22.5503 13.94C22.4803 13.88 22.3503 13.94 22.3903 14.03L22.4003 14.05Z" fill="#529471"></path><path d="M48.6501 19.74C51.0501 15.73 54.5401 12.65 58.8401 10.79C61.3101 9.71995 63.9901 9.05995 66.6701 8.73995C68.0301 8.56995 69.4101 8.48995 70.7801 8.44995C72.1501 8.40995 73.9301 8.15995 75.1901 8.62995L74.7501 7.84995C74.2201 10.15 71.8401 11.42 70.0101 12.7C68.0401 14.08 66.0001 15.34 63.8401 16.39C59.1501 18.67 54.3401 19.48 49.1701 18.89C48.4501 18.81 48.3001 19.99 49.0001 20.15C54.4101 21.4 60.3001 19.75 65.1401 17.32C67.6101 16.08 69.9401 14.56 72.1701 12.93C73.7901 11.74 76.3302 10.18 75.9802 7.83995C75.9302 7.49995 75.5002 7.30995 75.2002 7.39995C74.4202 7.61995 73.4201 7.45995 72.6201 7.46995C71.8202 7.47995 71.0901 7.48995 70.3301 7.51995C68.9201 7.57995 67.5101 7.70995 66.1101 7.90995C63.3901 8.29995 60.7301 8.95995 58.2101 10.07C53.9501 11.94 50.0001 15.16 48.3001 19.59C48.2201 19.81 48.5601 19.94 48.6701 19.75L48.6501 19.74Z" fill="#529471"></path><path d="M56.3408 21.48C57.6008 25.71 62.1408 28.73 66.0208 30.29C71.4008 32.46 77.3808 32.33 83.0508 31.76C83.5008 31.71 83.7908 31.37 83.6908 30.92C83.3808 29.4 82.1808 28.48 80.9608 27.64C79.2708 26.48 77.4608 25.49 75.5808 24.67C73.8408 23.91 72.0708 23.29 70.1808 23.01C68.2908 22.73 66.3108 22.1 64.4508 22.25C64.3408 22.25 64.3008 22.42 64.4208 22.46C66.0608 22.91 67.7708 22.88 69.3908 23.46C71.0108 24.04 72.7608 24.73 74.3908 25.45C76.0208 26.17 77.4508 26.93 78.8808 27.83C80.1908 28.66 82.0508 29.63 82.3908 31.28L83.0308 30.44C77.7708 30.98 72.3008 31.13 67.2208 29.43C65.1508 28.74 63.1708 27.72 61.4408 26.39C59.5708 24.95 58.3008 23.13 56.9108 21.25C56.7108 20.97 56.2008 21.12 56.3208 21.5L56.3408 21.48Z" fill="#529471"></path><path d="M86.2709 21.21C86.0909 19.14 86.7809 16.89 87.6509 15.02C88.5209 13.15 89.7408 11.35 91.1008 9.75002C93.6608 6.72002 96.7808 4.09002 100.571 2.78002L99.9409 2.15002C99.0009 5.76002 98.0108 9.67002 95.4708 12.52C94.1308 14.02 92.4408 15.14 90.7908 16.26C88.9008 17.54 87.0309 18.87 85.1609 20.18C84.6009 20.57 85.1209 21.49 85.7009 21.11C87.7009 19.79 89.7209 18.48 91.6909 17.12C93.4109 15.94 95.1508 14.73 96.5008 13.12C99.0508 10.08 100.031 6.19002 100.921 2.42002C101.001 2.07002 100.681 1.66002 100.291 1.79002C96.1908 3.21002 92.8109 6.06002 90.0609 9.36002C88.6509 11.05 87.4109 12.87 86.5809 14.91C85.7509 16.95 85.6108 19.02 85.9908 21.24C86.0208 21.39 86.2809 21.36 86.2709 21.2V21.21Z" fill="#529471"></path><path d="M85.1308 21.17C86.4308 23.07 88.8808 23.88 91.0408 24.33C93.6908 24.89 96.4808 25.07 99.1808 24.96C104.811 24.72 110.291 23.24 115.311 20.7C115.751 20.48 115.741 19.89 115.461 19.57C113.971 17.89 111.501 17.43 109.391 17.03C106.981 16.58 104.511 16.37 102.051 16.41C99.5908 16.45 97.2808 16.74 94.9608 17.28C92.8408 17.78 89.9608 18.36 88.3408 19.92C88.1708 20.09 88.2908 20.43 88.5508 20.42C90.5408 20.29 92.5408 19.26 94.4908 18.8C96.7608 18.27 99.0808 17.95 101.411 17.86C103.741 17.77 105.931 17.9 108.161 18.28C110.391 18.66 112.741 19.07 114.451 20.59L114.601 19.46C109.951 21.8 104.841 23.19 99.6408 23.49C97.1908 23.63 94.7208 23.6 92.2908 23.27C89.8608 22.94 87.7508 22.04 85.5908 20.72C85.3208 20.56 84.9608 20.89 85.1508 21.16L85.1308 21.17Z" fill="#529471"></path><path d="M95.6604 16.3299C97.7304 15.6099 98.6804 13.5299 99.9304 11.8999C101.46 9.91994 103.28 8.09994 105.27 6.58994C109.26 3.54994 113.91 1.73994 118.86 1.07994C119.52 0.989944 119.56 -0.0500559 118.86 0.00994409C114.05 0.409944 109.31 2.29994 105.44 5.15994C103.54 6.55994 101.81 8.16994 100.36 10.0299C99.6304 10.9699 98.9704 11.9499 98.3604 12.9699C97.6304 14.2099 96.9004 15.4799 95.5604 16.1499C95.4504 16.1999 95.5304 16.3799 95.6404 16.3399L95.6604 16.3299Z" fill="#529471"></path><path d="M118.83 0.620005C117.94 2.52 117.25 4.44 115.99 6.15C114.73 7.86 113.06 9.38 111.28 10.6C109.28 11.97 107.08 13.05 104.83 13.95C103.69 14.41 102.53 14.82 101.37 15.22C100.4 15.55 99.2005 15.74 98.4805 16.52C98.3005 16.72 98.3505 17.11 98.6505 17.17C99.8005 17.38 101 16.74 102.07 16.37C103.34 15.92 104.61 15.45 105.86 14.93C108.17 13.97 110.43 12.84 112.46 11.37C114.23 10.09 115.82 8.58 117.12 6.82C118.42 5.06001 119.58 3.02 119.6 0.830005C119.6 0.440005 119.01 0.240005 118.83 0.620005Z" fill="#529471"></path><path d="M110.21 7.67005C110.36 7.60005 110.52 7.55005 110.66 7.46005C110.81 7.37005 110.95 7.26005 111.09 7.16005C111.37 6.97005 111.65 6.78005 111.93 6.57005C112.47 6.16005 113.04 5.78005 113.57 5.35005C113.73 5.22005 113.56 4.92005 113.36 5.00005C112.72 5.27005 112.13 5.62005 111.54 5.98005C111.24 6.16005 110.96 6.37005 110.69 6.59005C110.56 6.69005 110.43 6.79005 110.3 6.89005C110.16 7.01005 110.05 7.16005 109.93 7.31005C109.77 7.52005 109.96 7.78005 110.21 7.67005Z" fill="#529471"></path><path d="M86.9001 20.46C91.0101 21.84 95.7201 21.72 99.8801 20.61C100.06 20.56 99.9801 20.31 99.8101 20.34C97.6301 20.66 95.4601 20.84 93.2501 20.83C91.0401 20.82 89.0101 20.59 86.9101 20.38C86.8601 20.38 86.8501 20.45 86.9001 20.47V20.46Z" fill="#529471"></path><path d="M88.0399 18.64C89.2499 16.92 90.5899 15.25 92.0199 13.71C92.7099 12.96 93.4199 12.23 94.1599 11.53C94.8999 10.83 95.8599 10.17 96.5099 9.34003C96.7599 9.02003 96.4599 8.62003 96.0799 8.79003C95.1399 9.21003 94.3199 10.04 93.5699 10.72C92.7499 11.46 91.9699 12.23 91.2399 13.06C89.7999 14.7 88.5799 16.44 87.5399 18.36C87.3599 18.68 87.8199 18.94 88.0299 18.64H88.0399Z" fill="#529471"></path><path d="M58.9805 22.24C61.3205 23.13 63.4305 24.44 65.6105 25.65C67.7905 26.86 69.8305 27.64 72.2605 27.57C72.5205 27.57 72.5205 27.19 72.2605 27.17C69.7505 26.94 67.3905 25.61 65.2405 24.39C64.2005 23.8 63.1605 23.19 62.0605 22.71C61.1205 22.3 60.0305 21.84 58.9805 22.04C58.8705 22.06 58.8905 22.21 58.9805 22.24Z" fill="#529471"></path><path d="M49.7205 19.31C51.8605 18.39 53.8205 17.12 55.8505 15.98C56.8205 15.43 57.8105 14.92 58.8405 14.47C59.3805 14.23 59.9405 14.03 60.5105 13.86C61.0805 13.69 61.7005 13.59 62.2505 13.37C62.6105 13.22 62.5505 12.74 62.1605 12.7C61.0805 12.58 59.8305 13.06 58.8405 13.44C57.7305 13.87 56.6805 14.43 55.6405 15.02C53.5405 16.23 51.5105 17.59 49.2905 18.58C48.7805 18.81 49.2205 19.54 49.7205 19.32V19.31Z" fill="#529471"></path><path d="M25.7601 15.4201C26.7801 15.6001 27.5701 16.2801 28.3801 16.8801C29.3001 17.5701 30.2001 18.2801 31.0701 19.0201C32.7401 20.4301 34.3601 21.9001 35.9901 23.3401C36.1401 23.4801 36.3501 23.2701 36.2101 23.1201C34.6801 21.3501 32.9401 19.7701 31.1101 18.3101C30.2501 17.6201 29.3801 16.9601 28.4801 16.3201C27.6701 15.7401 26.8001 15.2301 25.7901 15.1401C25.6301 15.1301 25.6001 15.3901 25.7501 15.4201H25.7601Z" fill="#529471"></path><path d="M20.5505 14.4C21.0605 14.15 21.5305 13.72 21.9805 13.37C22.5005 12.97 23.0105 12.57 23.5405 12.18C24.5505 11.45 25.5905 10.76 26.6605 10.12C27.7305 9.47998 28.7505 8.90998 29.8405 8.35998C30.9805 7.78998 32.2205 7.36998 33.3205 6.73998C33.7305 6.49998 33.4505 5.90998 33.0105 5.99998C31.8205 6.25998 30.6405 6.87998 29.5405 7.40998C28.3505 7.97998 27.1805 8.59998 26.0505 9.28998C24.9205 9.97998 23.8905 10.68 22.8605 11.45C21.9105 12.16 20.7205 12.91 20.0505 13.9C19.8305 14.23 20.2505 14.55 20.5605 14.41L20.5505 14.4Z" fill="#529471"></path><path d="M23.0602 13.5199C27.0402 13.9599 30.9902 14.2699 34.9402 13.3999C36.7502 12.9999 38.4902 12.3699 40.2002 11.6599C41.9102 10.9499 43.7502 10.3199 45.4002 9.45994C45.6702 9.31994 45.4702 8.94994 45.2002 8.98994C43.4002 9.30994 41.6602 10.1799 39.9602 10.8199C38.2602 11.4599 36.6202 12.0799 34.8802 12.4999C31.0502 13.4299 26.9702 13.3599 23.0502 13.3999C22.9702 13.3999 22.9702 13.5099 23.0502 13.5199H23.0602Z" fill="#529471"></path><path d="M45.5999 10.71C47.8399 10.71 47.8399 7.22998 45.5999 7.22998C43.3599 7.22998 43.3599 10.71 45.5999 10.71Z" fill="#529471"></path><path d="M71.83 23.23C73.79 23.93 75.93 24.11 77.98 24.34C80.03 24.57 82.22 24.62 84.36 24.59C84.58 24.59 84.65 24.22 84.41 24.19C82.35 23.91 80.29 23.6 78.22 23.38C76.15 23.16 73.99 22.76 71.88 22.82C71.65 22.82 71.61 23.14 71.83 23.22V23.23Z" fill="#529471"></path><path d="M37.1304 17.99C40.2104 20.46 43.3304 22.9 46.4504 25.32C49.5704 27.74 52.5004 30.15 55.6904 32.28C55.8804 32.41 56.1104 32.11 55.9304 31.96C53.0404 29.43 49.8704 27.17 46.8104 24.85C43.7504 22.53 40.5004 20.09 37.3104 17.76C37.1704 17.66 37.0004 17.89 37.1304 17.99Z" fill="#529471"></path><path d="M56.0402 34.2601C56.3102 34.2701 56.5602 34.2101 56.8002 34.0901C57.0402 34.0101 57.2502 33.8801 57.4302 33.6801C57.6202 33.5001 57.7602 33.2901 57.8402 33.0501C57.9602 32.8201 58.0202 32.5601 58.0102 32.2901L57.9402 31.7701C57.8502 31.4401 57.6802 31.1501 57.4402 30.9101L57.0402 30.6001C56.7302 30.4201 56.4002 30.3301 56.0502 30.3301C55.7802 30.3201 55.5302 30.3801 55.2902 30.5001C55.0502 30.5801 54.8402 30.7101 54.6602 30.9101C54.4702 31.0901 54.3302 31.3001 54.2502 31.5401C54.1302 31.7701 54.0702 32.0301 54.0802 32.3001L54.1502 32.8201C54.2402 33.1501 54.4102 33.4401 54.6502 33.6801L55.0502 33.9901C55.3602 34.1701 55.6902 34.2601 56.0402 34.2601Z" fill="#529471"></path></g><defs><clipPath id="clip0_674_2822"><rect width="119.2" height="34.26" fill="white" transform="translate(0.400391)"></rect></clipPath></defs></svg>